<svg xmlns="http://www.w3.org/2000/svg" xmlns:xlink="http://www.w3.org/1999/xlink" width="40" zoomAndPan="magnify" viewBox="0 0 30 30.000001" height="40" preserveAspectRatio="xMidYMid meet" version="1.2"><defs><clipPath id="5410306044"><path d="M 0.484375 0 L 29.515625 0 L 29.515625 29.03125 L 0.484375 29.03125 Z M 0.484375 0 "/></clipPath><clipPath id="b62fddd30b"><path d="M 6 4 L 29.515625 4 L 29.515625 25 L 6 25 Z M 6 4 "/></clipPath></defs><g id="e3dd2d7ea7"><g clip-rule="nonzero" clip-path="url(#5410306044)"><path style=" stroke:none;fill-rule:nonzero;fill:#ffffff;fill-opacity:1;" d="M 0.484375 0 L 29.515625 0 L 29.515625 29.03125 L 0.484375 29.03125 Z M 0.484375 0 "/><path style=" stroke:none;fill-rule:nonzero;fill:#000000;fill-opacity:1;" d="M 0.484375 0 L 29.515625 0 L 29.515625 29.03125 L 0.484375 29.03125 Z M 0.484375 0 "/></g><g clip-rule="nonzero" clip-path="url(#b62fddd30b)"><g style="fill:#ffffff;fill-opacity:1;"><g transform="translate(6.669084, 22.035541)"><path style="stroke:none" d="M 22.9375 -9.796875 C 22.957031 -9.816406 22.972656 -9.820312 22.984375 -9.8125 C 23.003906 -9.800781 23.015625 -9.785156 23.015625 -9.765625 C 23.023438 -9.753906 23.015625 -9.734375 22.984375 -9.703125 C 21.609375 -9.128906 20.210938 -8.585938 18.796875 -8.078125 C 17.390625 -7.578125 15.972656 -7.097656 14.546875 -6.640625 L 16.125 1.671875 C 16.15625 1.910156 16.050781 2.066406 15.8125 2.140625 C 15.757812 2.140625 15.707031 2.132812 15.65625 2.125 C 15.613281 2.113281 15.566406 2.097656 15.515625 2.078125 C 14.640625 1.515625 13.765625 0.957031 12.890625 0.40625 C 12.023438 -0.132812 11.144531 -0.675781 10.25 -1.21875 C 9.457031 -1.726562 8.578125 -2.257812 7.609375 -2.8125 C 6.640625 -3.375 5.71875 -3.832031 4.84375 -4.1875 C 4.664062 -4.269531 4.617188 -4.394531 4.703125 -4.5625 C 4.722656 -4.644531 4.796875 -4.703125 4.921875 -4.734375 C 6.359375 -4.972656 7.800781 -5.257812 9.25 -5.59375 C 10.695312 -5.925781 12.132812 -6.289062 13.5625 -6.6875 L 13.390625 -7.515625 C 12.804688 -10.179688 12.25 -12.847656 11.71875 -15.515625 C 10 -12.878906 8.1875 -10.285156 6.28125 -7.734375 C 4.382812 -5.179688 2.304688 -2.796875 0.046875 -0.578125 C 0.0351562 -0.566406 0.0078125 -0.566406 -0.03125 -0.578125 C -0.0390625 -0.609375 -0.0390625 -0.632812 -0.03125 -0.65625 C 1.039062 -1.96875 2.082031 -3.300781 3.09375 -4.65625 C 4.101562 -6.007812 5.078125 -7.382812 6.015625 -8.78125 C 6.984375 -10.15625 7.921875 -11.550781 8.828125 -12.96875 C 9.742188 -14.394531 10.640625 -15.816406 11.515625 -17.234375 C 11.617188 -17.421875 11.773438 -17.515625 11.984375 -17.515625 C 12.023438 -17.515625 12.070312 -17.503906 12.125 -17.484375 C 12.175781 -17.460938 12.222656 -17.4375 12.265625 -17.40625 C 12.398438 -17.332031 12.484375 -17.210938 12.515625 -17.046875 C 12.835938 -15.492188 13.144531 -13.9375 13.4375 -12.375 C 13.738281 -10.820312 14.035156 -9.257812 14.328125 -7.6875 L 14.484375 -6.953125 C 15.921875 -7.378906 17.34375 -7.828125 18.75 -8.296875 C 20.164062 -8.765625 21.5625 -9.265625 22.9375 -9.796875 Z M 5.890625 -4.34375 C 6.703125 -3.96875 7.5 -3.5625 8.28125 -3.125 C 9.0625 -2.6875 9.832031 -2.242188 10.59375 -1.796875 C 11.351562 -1.335938 12.117188 -0.878906 12.890625 -0.421875 C 13.660156 0.0234375 14.414062 0.484375 15.15625 0.953125 L 13.625 -6.359375 C 12.351562 -5.960938 11.070312 -5.59375 9.78125 -5.25 C 8.5 -4.914062 7.203125 -4.613281 5.890625 -4.34375 Z M 5.890625 -4.34375 "/></g></g></g></g></svg>